<svg xmlns="http://www.w3.org/2000/svg" width="15.146" height="15.131" viewBox="0 0 15.146 15.131">
  <g id="Group_24218" data-name="Group 24218" transform="translate(745.075 -287.685)">
    <path id="Path_7667" data-name="Path 7667" d="M-733.335,290.7c-.875,0-1.751,0-2.626,0a.2.2,0,0,0-.222.143,2.156,2.156,0,0,1-2.078,1.368,2.161,2.161,0,0,1-2.072-1.377.19.19,0,0,0-.209-.133q-1.872.005-3.744,0a.753.753,0,0,1-.716-1.071.766.766,0,0,1,.763-.446c1.212,0,2.425,0,3.638,0a.279.279,0,0,0,.3-.193,2.153,2.153,0,0,1,2.076-1.312,2.156,2.156,0,0,1,2.036,1.347.229.229,0,0,0,.249.157q2.591-.006,5.182,0a.76.76,0,0,1,.832.752.749.749,0,0,1-.78.765C-731.584,290.707-732.46,290.7-733.335,290.7Z" fill="#fff"/>
    <path id="Path_7668" data-name="Path 7668" d="M-734.074,588.829c-1.124,0-2.248,0-3.371,0a.219.219,0,0,0-.234.154,2.155,2.155,0,0,1-2.07,1.35,2.161,2.161,0,0,1-2.065-1.357.206.206,0,0,0-.221-.147c-.739.006-1.479.008-2.218,0a.76.76,0,0,1-.769-.951.756.756,0,0,1,.749-.564c.745,0,1.491,0,2.236,0a.2.2,0,0,0,.22-.144,2.163,2.163,0,0,1,2.079-1.367,2.155,2.155,0,0,1,2.063,1.362.215.215,0,0,0,.235.148q3.371,0,6.743,0a.75.75,0,0,1,.793.8.758.758,0,0,1-.816.713Q-732.4,588.831-734.074,588.829Z" transform="translate(-0.025 -287.515)" fill="#fff"/>
    <path id="Path_7669" data-name="Path 7669" d="M-740.383,438.237c1.236,0,2.473,0,3.709,0a.277.277,0,0,0,.3-.187,2.152,2.152,0,0,1,2.068-1.326,2.158,2.158,0,0,1,2.051,1.354.228.228,0,0,0,.249.159c.5-.006,1.006-.009,1.508,0a.733.733,0,0,1,.711.646.75.75,0,0,1-.557.835,1.2,1.2,0,0,1-.282.023c-.473,0-.947,0-1.42,0a.183.183,0,0,0-.2.13,2.162,2.162,0,0,1-2.086,1.382,2.156,2.156,0,0,1-2.07-1.378.206.206,0,0,0-.23-.133q-3.7,0-7.4,0a1.352,1.352,0,0,1-.351-.031.745.745,0,0,1-.534-.849.741.741,0,0,1,.748-.626c1.26,0,2.52,0,3.78,0Z" transform="translate(-0.149 -143.741)" fill="#fff"/>
  </g>
</svg>
